<?xml version="1.0" encoding="UTF-8" standalone="no"?>
<!-- Created with Inkscape (http://www.inkscape.org/) -->

<svg
   width="124.66357"
   height="125.09124"
   viewBox="0 0 32.983902 33.097058"
   version="1.1"
   id="svg5"
   xml:space="preserve"
   inkscape:version="1.2.1 (9c6d41e410, 2022-07-14)"
   sodipodi:docname="Genome.svg"
   xmlns:inkscape="http://www.inkscape.org/namespaces/inkscape"
   xmlns:sodipodi="http://sodipodi.sourceforge.net/DTD/sodipodi-0.dtd"
   xmlns="http://www.w3.org/2000/svg"
   xmlns:svg="http://www.w3.org/2000/svg"><sodipodi:namedview
     id="namedview7"
     pagecolor="#505050"
     bordercolor="#eeeeee"
     borderopacity="1"
     inkscape:showpageshadow="0"
     inkscape:pageopacity="0"
     inkscape:pagecheckerboard="0"
     inkscape:deskcolor="#505050"
     inkscape:document-units="mm"
     showgrid="false"
     inkscape:zoom="1"
     inkscape:cx="102.5"
     inkscape:cy="209"
     inkscape:window-width="1851"
     inkscape:window-height="1057"
     inkscape:window-x="1141"
     inkscape:window-y="-8"
     inkscape:window-maximized="1"
     inkscape:current-layer="layer1" /><defs
     id="defs2" /><g
     inkscape:label="Layer 1"
     inkscape:groupmode="layer"
     id="layer1"
     transform="translate(-40.055923,0.05657616)"><g
       id="g22563"><rect
         style="fill:#ede7d9;fill-opacity:1;stroke:none;stroke-width:1;paint-order:fill markers stroke;stop-color:#000000"
         id="rect7770"
         width="32.983902"
         height="33.097057"
         x="40.055923"
         y="-0.056576159"
         ry="4.0734835" /><rect
         style="fill:#736b60;fill-opacity:1;stroke:none;stroke-width:1;paint-order:fill markers stroke;stop-color:#000000"
         id="rect7772"
         width="30.241142"
         height="30.607706"
         x="41.427303"
         y="1.1880994"
         ry="3.7671018" /><text
         xml:space="preserve"
         style="font-style:normal;font-variant:normal;font-weight:bold;font-stretch:normal;font-size:6.04133px;line-height:1;font-family:sans-serif;-inkscape-font-specification:'sans-serif Bold';letter-spacing:0px;word-spacing:0px;fill:#28231e;fill-opacity:1;stroke-width:0.264582"
         x="42.193241"
         y="26.774853"
         id="text7790"><tspan
           sodipodi:role="line"
           id="tspan7788"
           style="font-style:normal;font-variant:normal;font-weight:bold;font-stretch:normal;font-family:sans-serif;-inkscape-font-specification:'sans-serif Bold';fill:#28231e;fill-opacity:1;stroke-width:0.264582"
           x="42.193241"
           y="26.774853">Genome</tspan></text><path
         id="rect21351"
         style="fill:#d5a021;stroke:#4b4237;stroke-width:0.678884;paint-order:fill markers stroke;stop-color:#000000"
         d="m 48.658485,2.7166865 -0.949384,1.660981 c 0,0 0.207477,1.1624871 0.77919,2.771648 0.399394,-0.071955 0.82926,-0.1385677 1.286696,-0.1923569 C 48.856422,4.6174757 48.658485,2.7166865 48.658485,2.7166865 Z M 68.331653,14.247044 c 0,0 -6.052519,2.713793 -11.656299,0.331582 l 2.162161,-3.019015 c 0.505865,0.411019 0.964796,0.854059 1.380518,1.317487 l -1.752541,2.089748 0.951754,0.141188 1.32693,-1.605282 c 0.351654,0.444984 0.668907,0.902424 0.953158,1.363712 0.528384,0.0195 1.043788,0.01018 1.540674,-0.02068 C 62.180799,12.768803 60.582518,10.554683 58.221619,9.1709711 52.721691,5.9474874 45.418473,8.5958965 45.418473,8.5958965 L 44.46909,10.256878 c 0,0 5.956143,-2.6711887 11.521775,-0.3884989 l -1.531389,3.4558349 c -0.410621,-0.298559 -0.79359,-0.617698 -1.149411,-0.952911 l 0.973342,-2.9465068 -0.772843,-0.208173 -0.834685,2.5131378 c -0.610044,-0.665307 -1.130238,-1.374645 -1.572469,-2.0923022 -0.528385,-0.019503 -1.043787,-0.010176 -1.540672,0.020677 1.057209,2.0769832 2.655477,4.2911062 5.016389,5.6748132 5.499933,3.223486 12.803146,0.575075 12.803146,0.575075 z m -10.91246,-3.6722 c 0.26449,0.155015 0.518497,0.318593 0.762872,0.489628 l -2.263208,3.159829 c -0.17993,-0.09269 -0.359156,-0.190808 -0.537307,-0.29522 -0.07844,-0.04597 -0.155347,-0.09336 -0.23192,-0.140897 l 1.587454,-3.5809 c 0.228612,0.113638 0.456266,0.235195 0.682109,0.36756 z m 6.89326,6.779762 c -0.399392,0.07196 -0.829262,0.138568 -1.286695,0.192358 0.918564,2.339481 1.116502,4.240272 1.116502,4.240272 l 0.949384,-1.660981 c 0,0 -0.20748,-1.162489 -0.779191,-2.771649 z" /></g></g></svg>
