<?xml version="1.0" encoding="UTF-8" standalone="no"?>
<!-- Created with Inkscape (http://www.inkscape.org/) -->

<svg
   width="48"
   height="48"
   viewBox="0 0 12.7 12.7"
   version="1.1"
   id="svg7373"
   xml:space="preserve"
   inkscape:version="1.2.1 (9c6d41e410, 2022-07-14)"
   sodipodi:docname="Genome.svg"
   xmlns:inkscape="http://www.inkscape.org/namespaces/inkscape"
   xmlns:sodipodi="http://sodipodi.sourceforge.net/DTD/sodipodi-0.dtd"
   xmlns="http://www.w3.org/2000/svg"
   xmlns:svg="http://www.w3.org/2000/svg"><sodipodi:namedview
     id="namedview7375"
     pagecolor="#505050"
     bordercolor="#eeeeee"
     borderopacity="1"
     inkscape:showpageshadow="0"
     inkscape:pageopacity="0"
     inkscape:pagecheckerboard="0"
     inkscape:deskcolor="#505050"
     inkscape:document-units="mm"
     showgrid="false"
     inkscape:zoom="6.6136925"
     inkscape:cx="52.54251"
     inkscape:cy="30.542696"
     inkscape:window-width="1851"
     inkscape:window-height="1057"
     inkscape:window-x="1141"
     inkscape:window-y="-8"
     inkscape:window-maximized="1"
     inkscape:current-layer="Layer_x0020_1" /><defs
     id="defs7370" /><g
     inkscape:label="Layer 1"
     inkscape:groupmode="layer"
     id="layer1"><text
       xml:space="preserve"
       style="font-style:normal;font-variant:normal;font-weight:normal;font-stretch:normal;font-size:3.175px;line-height:1;font-family:monospace;-inkscape-font-specification:monospace;letter-spacing:0px;word-spacing:0px;white-space:pre;inline-size:12.9459;fill:#b3b3b3;stroke-width:0.264583"
       x="0.080010682"
       y="2.8003771"
       id="text7496"
       transform="translate(0.62008352,-0.3600485)"><tspan
         x="0.080010682"
         y="2.8003771"
         id="tspan7556"><tspan
           style="font-weight:bold;-inkscape-font-specification:'monospace Bold'"
           id="tspan7554">ATCTTA</tspan></tspan><tspan
         x="0.080010682"
         y="6.016314"
         id="tspan7560"><tspan
           style="font-weight:bold;-inkscape-font-specification:'monospace Bold'"
           id="tspan7558">GTACCG</tspan></tspan><tspan
         x="0.080010682"
         y="9.2322507"
         id="tspan7564"><tspan
           style="font-weight:bold;-inkscape-font-specification:'monospace Bold'"
           id="tspan7562">AGTACT</tspan></tspan><tspan
         x="0.080010682"
         y="12.448187"
         id="tspan7568"><tspan
           style="font-weight:bold;-inkscape-font-specification:'monospace Bold'"
           id="tspan7566">ATAGCA</tspan></tspan></text><g
       style="clip-rule:evenodd;fill-rule:evenodd;stroke-width:11.6248;image-rendering:optimizeQuality;shape-rendering:geometricPrecision;text-rendering:geometricPrecision"
       id="g7511"
       transform="matrix(0.02267663,0,0,0.02267663,0.66029947,0.59028328)"><g
         id="Layer_x0020_1"
         inkscape:label="Layer 1"
         inkscape:groupmode="layer"
         style="stroke-width:11.6248">
  <metadata
   id="CorelCorpID_0Corel-Layer" />
  <path
   style="stroke-width:26.101;fill:#ff6600"
   d="m 442.65,139.99 -57.36,-57.36 5.01,-23.84 74.92,74.92 c 11.21,-4.17 22.11,-9.95 32.58,-17.89 l 16.09,21.09 c -39.99,30.31 -82.39,34.28 -125.31,33.23 -0.36,-5.72 -0.76,-11.46 -1.16,-17.25 -0.23,-3.19 -0.44,-6.31 -0.64,-9.38 18.96,0.52 37.72,0.04 55.87,-3.52 z"
   id="path7517" /><path
   style="fill:#ff6600;stroke-width:26.101"
   d="m 332.32508,132.18946 c -22.17998,-0.42 -44.32151,0.61451 -66.29149,6.0845 -27.64997,6.88 -54.34368,20.62579 -79.30366,46.87576 -23.38998,24.58998 -34.12126,51.3411 -38.42126,79.69107 -2.61,17.18998 -2.81653,34.73403 -2.09653,52.66401 4.87999,0.22 9.75016,0.47923 14.63016,0.72923 0.6,0 1.17471,0.0311 1.7547,0.0911 l 10.20921,0.52414 c -0.76,-17.34999 -0.67808,-34.125 1.73192,-49.97498 3.46,-22.78998 11.84005,-44.22757 29.83003,-63.80755 l 48.90392,48.90393 14.1744,-14.67574 -48.28864,-48.28864 c 13.61998,-11.32999 27.71857,-18.84553 42.15855,-23.74552 l 72.21647,72.21647 5.01345,-23.85947 -54.12247,-54.09968 c 16.12998,-2.72 32.80875,-3.13461 49.67873,-2.73461 -0.23,-3.46 -0.45644,-6.92431 -0.70644,-10.4143 -0.39,-5.55 -0.76105,-10.93978 -1.07105,-16.17977 z"
   id="path7539" /><path
   style="fill:#0000ff;stroke-width:26.101"
   d="m 381.93545,-8.8252186 c -18.89,25.7299736 -28.0466,49.2364886 -31.9266,74.5864636 -3.75996,24.569975 -2.3951,50.230225 -0.2051,81.400195 1.94,27.60997 3.7656,54.27398 0.046,78.73396 -3.52998,23.21997 -12.1683,45.03419 -30.87828,64.92417 l -43.27519,-43.27519 -14.1516,14.69853 42.50038,42.50038 c -13.33999,10.85999 -27.12703,18.10678 -41.24702,22.85678 l -71.12262,-71.12263 -4.99067,23.85947 52.96027,52.96026 c -20.04998,3.32999 -40.9345,3.15605 -61.98448,2.25605 -4.81999,-0.21 -10.81785,-0.51038 -16.81784,-0.82038 -53.15995,-2.74 -106.239311,-5.48061 -155.5992609,31.94935 l 16.0886199,21.07928 c 9.83999,-7.46 20.04926,-13.0141 30.55925,-17.1141 l 76.660211,76.66021 5.01345,-23.83668 -59.386591,-59.40938 c 27.449971,-5.79999 56.344251,-4.29297 85.274221,-2.80297 5.31,0.28 10.63411,0.54038 17.1141,0.82038 27.35997,1.17 54.69763,1.15683 81.7876,-5.58316 27.64997,-6.87999 54.36648,-20.62579 79.32645,-46.87576 23.39,-24.59997 34.0885,-51.34109 38.3985,-79.69107 4.14,-27.29997 2.2323,-55.46896 0.1823,-84.65894 -2.06,-29.40997 -3.3728,-53.52244 -0.023,-75.452419 3.24,-21.149978 11.0026,-40.927666 27.0726,-62.8276436 z"
   id="path7515" /><path
   style="stroke-width:26.101;fill:#ff6600"
   d="m 115.82,496.61 c 16.08,-21.9 23.85,-41.68 27.08,-62.84 2.24,-14.62 2.4,-30.2 1.65,-47.69 l 8.78,0.45 v -0.05 c 5.71,0.41 11.56,0.59 17.29,0.88 l 0.53,0.02 c 0.7,18.07 0.42,34.48 -2.02,50.43 -3.88,25.36 -13.04,48.86 -31.93,74.59 z"
   id="path7499" />
 </g></g></g></svg>
