<?xml version="1.0" encoding="UTF-8" standalone="no"?>
<!-- Created with Inkscape (http://www.inkscape.org/) -->

<svg
   width="124.66357"
   height="125.09124"
   viewBox="0 0 32.983902 33.097058"
   version="1.1"
   id="svg5"
   xml:space="preserve"
   inkscape:version="1.2.1 (9c6d41e410, 2022-07-14)"
   sodipodi:docname="Mito Chromosome.svg"
   xmlns:inkscape="http://www.inkscape.org/namespaces/inkscape"
   xmlns:sodipodi="http://sodipodi.sourceforge.net/DTD/sodipodi-0.dtd"
   xmlns="http://www.w3.org/2000/svg"
   xmlns:svg="http://www.w3.org/2000/svg"><sodipodi:namedview
     id="namedview7"
     pagecolor="#505050"
     bordercolor="#eeeeee"
     borderopacity="1"
     inkscape:showpageshadow="0"
     inkscape:pageopacity="0"
     inkscape:pagecheckerboard="0"
     inkscape:deskcolor="#505050"
     inkscape:document-units="mm"
     showgrid="false"
     inkscape:zoom="1.4142136"
     inkscape:cx="292.0351"
     inkscape:cy="71.417785"
     inkscape:window-width="1851"
     inkscape:window-height="1057"
     inkscape:window-x="1141"
     inkscape:window-y="-8"
     inkscape:window-maximized="1"
     inkscape:current-layer="g22570" /><defs
     id="defs2"><inkscape:path-effect
       effect="skeletal"
       id="path-effect522"
       is_visible="true"
       lpeversion="1"
       pattern="m 124.05718,8.3439445 h 1.98155 V 10.79134 h -1.98155 z"
       copytype="repeated_stretched"
       prop_scale="1"
       scale_y_rel="false"
       spacing="0"
       normal_offset="0"
       tang_offset="0"
       prop_units="false"
       vertical_pattern="false"
       hide_knot="false"
       fuse_tolerance="0" /></defs><g
     inkscape:label="Layer 1"
     inkscape:groupmode="layer"
     id="layer1"
     transform="translate(-81.922287,0.05657616)"><g
       id="g22570"><rect
         style="fill:#ede7d9;fill-opacity:1;stroke:none;stroke-width:1;paint-order:fill markers stroke;stop-color:#000000"
         id="rect7792"
         width="32.983902"
         height="33.097057"
         x="81.922287"
         y="-0.056576159"
         ry="4.0734835" /><rect
         style="fill:#736b60;fill-opacity:1;stroke:none;stroke-width:1;paint-order:fill markers stroke;stop-color:#000000"
         id="rect7794"
         width="30.241142"
         height="30.607706"
         x="83.293663"
         y="1.1880994"
         ry="3.7671018" /><text
         xml:space="preserve"
         style="font-style:normal;font-variant:normal;font-weight:bold;font-stretch:normal;font-size:4.3928px;line-height:1;font-family:sans-serif;-inkscape-font-specification:'sans-serif Bold';letter-spacing:0px;word-spacing:0px;white-space:pre;inline-size:51.0641;fill:#28231e;fill-opacity:1;stroke-width:0.264582"
         x="84.545212"
         y="25.842402"
         id="text7812"
         transform="matrix(0.81453116,0,0,0.81453116,15.721424,5.2247363)"><tspan
           x="84.545212"
           y="25.842402"
           id="tspan2839">Mitochondrial </tspan><tspan
           x="84.545212"
           y="30.235202"
           id="tspan2841">Chromosome</tspan></text><path
         style="fill:none;stroke:#28231e;stroke-width:0.375;stroke-dasharray:none;stroke-opacity:1;paint-order:fill markers stroke;stop-color:#000000"
         id="path511"
         sodipodi:type="arc"
         sodipodi:cx="135.07169"
         sodipodi:cy="23.457043"
         sodipodi:rx="8.8953896"
         sodipodi:ry="8.8953896"
         d="m 145.19077,23.457043 c -0.0105,0.771411 -0.11432,1.527431 -0.30031,2.256928 l -2.34342,-0.595283 c 0.13769,-0.544717 0.20684,-1.102309 0.19634,-1.661645 z m -0.30031,2.256928 c -0.18599,0.729496 -0.45416,1.43247 -0.79338,2.09779 l -2.15756,-1.10868 c 0.26362,-0.507835 0.46983,-1.039676 0.60752,-1.584393 z m -0.79338,2.09779 c -0.33922,0.66532 -0.74948,1.292986 -1.21966,1.871866 l -1.88982,-1.540193 c 0.36728,-0.44869 0.6883,-0.932519 0.95192,-1.440353 z m -1.21966,1.871866 c -0.47018,0.578881 -1.00028,1.108977 -1.57916,1.579157 l -1.54019,-1.889821 c 0.44869,-0.367285 0.86224,-0.780838 1.22953,-1.229529 z m -1.57916,1.579157 c -0.57888,0.470179 -1.20655,0.880443 -1.87187,1.21966 l -1.10867,-2.157565 c 0.50783,-0.263616 0.99166,-0.584632 1.44035,-0.951916 z m -1.87187,1.21966 c -0.66532,0.339216 -1.36829,0.607386 -2.09779,0.793377 l -0.59528,-2.343422 c 0.54472,-0.137686 1.07656,-0.343903 1.5844,-0.60752 z m -2.09779,0.793377 c -0.72949,0.185991 -1.48551,0.289804 -2.25691,0.300309 l -1e-5,-8e-6 v -2.447394 l 1e-5,7e-6 c 0.55933,0.01051 1.11692,-0.05865 1.66163,-0.196336 z m -2.25693,0.300309 c -0.77141,-0.01051 -1.52743,-0.114322 -2.25692,-0.300315 l 0.59528,-2.343421 c 0.54472,0.137688 1.10231,0.206845 1.66165,0.196341 l 0,2.447387 m -2.25693,-0.300307 c -0.7295,-0.185993 -1.43247,-0.454164 -2.09779,-0.793383 l 1.10868,-2.157561 c 0.50783,0.263617 1.03967,0.469836 1.58439,0.607523 z m -2.09779,-0.793383 c -0.66532,-0.339218 -1.29299,-0.749483 -1.87187,-1.219664 l 1.5402,-1.889818 c 0.44869,0.367286 0.93251,0.688303 1.44035,0.951921 z m -1.87187,-1.219664 c -0.57888,-0.470181 -1.10897,-1.000278 -1.57915,-1.57916 l 1.88982,-1.540189 c 0.36728,0.448692 0.78084,0.862246 1.22953,1.229531 z m -1.57915,-1.57916 c -0.47018,-0.578882 -0.88044,-1.206548 -1.21966,-1.871869 l 2.15756,-1.108675 c 0.26362,0.507835 0.58464,0.991664 0.95192,1.440355 z m -1.21966,-1.871869 c -0.33922,-0.665321 -0.60739,-1.368295 -0.79338,-2.097792 l 2.34343,-0.595277 c 0.13768,0.544717 0.3439,1.076559 0.60751,1.584394 z m -0.79338,-2.097792 c -0.18598,-0.72949 -0.2898,-1.485501 -0.3003,-2.256904 0,-9e-6 0,-1.7e-5 0,-2.6e-5 l 2.44739,7e-6 c 0,6e-6 0,1.3e-5 0,1.9e-5 -0.0105,0.55933 0.0587,1.116916 0.19634,1.661627 z m -0.3003,-2.25693 c 0.0105,-0.771411 0.11432,-1.52743 0.30032,-2.256926 l 2.34342,0.595288 c -0.13769,0.544717 -0.20685,1.102309 -0.19635,1.661645 z m 0.30032,-2.256926 c 0.18599,-0.729497 0.45416,-1.43247 0.79338,-2.097789 l 2.15756,1.108686 c -0.26362,0.507834 -0.46984,1.039675 -0.60752,1.584391 z m 0.79338,-2.097789 c 0.33922,-0.665318 0.74949,-1.292983 1.21967,-1.871863 l 1.88981,1.540197 c -0.36728,0.44869 -0.6883,0.932518 -0.95192,1.440352 z m 1.21967,-1.871863 c 0.47018,-0.57888 1.00028,-1.108974 1.57916,-1.579153 l 1.54019,1.889825 c -0.4487,0.367283 -0.86225,0.780835 -1.22954,1.229525 z m 1.57916,-1.579153 c 0.57888,-0.470178 1.20655,-0.88044 1.87187,-1.219655 l 1.10867,2.157566 c -0.50783,0.263615 -0.99166,0.58463 -1.44035,0.951914 z m 1.87187,-1.219655 c 0.66532,-0.339215 1.3683,-0.607383 2.09779,-0.793373 l 0.59528,2.343424 c -0.54472,0.137685 -1.07656,0.3439 -1.5844,0.607515 z m 2.09779,-0.793373 c 0.72949,-0.185986 1.4855,-0.289798 2.2569,-0.300303 1e-5,1e-6 2e-5,1e-6 3e-5,1e-6 l -1e-5,2.447394 c -1e-5,1e-6 -1e-5,1e-6 -2e-5,1e-6 -0.55933,-0.01051 -1.11691,0.05865 -1.66162,0.196331 z m 2.25693,-0.300302 c 0.77142,0.01051 1.52743,0.114325 2.25693,0.300321 l -0.59529,2.343419 c -0.54472,-0.137689 -1.10231,-0.206848 -1.66165,-0.196346 z m 2.25693,0.300321 c 0.7295,0.185995 1.43247,0.454167 2.09779,0.793387 l -1.10869,2.157559 c -0.50783,-0.263619 -1.03968,-0.469838 -1.58439,-0.607527 z m 2.09779,0.793387 c 0.66532,0.33922 1.29298,0.749487 1.87186,1.219669 l -1.5402,1.889814 c -0.44869,-0.367286 -0.93252,-0.688305 -1.44035,-0.951924 z m 1.87186,1.219669 c 0.57888,0.470182 1.10897,1.00028 1.57915,1.579163 l -1.88983,1.540185 c -0.36728,-0.448692 -0.78083,-0.862247 -1.22952,-1.229534 z m 1.57915,1.579163 c 0.47018,0.578883 0.88044,1.206551 1.21965,1.871872 l -2.15756,1.10867 c -0.26362,-0.507836 -0.58463,-0.991665 -0.95192,-1.440357 z m 1.21965,1.871872 c 0.33922,0.665322 0.60738,1.368297 0.79337,2.097795 l -2.34342,0.59527 c -0.13769,-0.544717 -0.3439,-1.076559 -0.60751,-1.584395 z m 0.79337,2.097795 c 0.18599,0.729498 0.2898,1.485518 0.3003,2.256931 l -2.44739,-1.4e-5 c 0.0105,-0.559337 -0.0587,-1.11693 -0.19633,-1.661647 z"
         inkscape:path-effect="#path-effect522"
         class="UnoptimicedTransforms"
         transform="matrix(1.032081,0,0,1.032081,-40.990682,-11.293765)" /><g
         id="g2823"
         transform="matrix(0.68466655,-0.20859199,0.20859199,0.68466655,5.0604682,32.754629)"><ellipse
           style="fill:#d5a021;fill-opacity:1;stroke:#28231e;stroke-width:0.305012;stroke-dasharray:none;stroke-opacity:1;paint-order:fill markers stroke;stop-color:#000000"
           id="path1720"
           cx="132.82391"
           cy="11.754678"
           rx="9.6841412"
           ry="4.8420706"
           transform="rotate(-0.11098011)" /><path
           id="ellipse2749"
           style="fill:#d5a021;stroke:#ede7d9;stroke-width:0.617;paint-order:fill markers stroke;stop-color:#000000"
           transform="matrix(0.99999848,-0.00174548,0.00214946,0.99999769,0,0)"
           d="m 138.44825,11.924854 c 0.001,0.764557 1.65296,1.340284 1.1984,1.955225 -0.6386,0.863923 -2.17157,-1.307243 -3.12031,-0.803258 -0.78655,0.417824 -0.0319,2.305927 -0.89714,2.51668 -1.08463,0.264181 -1.33247,-2.230466 -2.44737,-2.284686 -1.23263,-0.05994 -1.78489,2.685201 -2.94006,2.251373 -0.93589,-0.351476 0.27188,-2.435697 -0.59098,-2.940496 -1.26619,-0.740771 -3.40327,2.597504 -4.18756,1.357805 -0.55263,-0.873528 2.05747,-1.225902 2.12784,-2.257382 0.0597,-0.875236 -2.03047,-1.421794 -1.52872,-2.14159 0.62975,-0.9034351 2.21824,1.394478 3.18631,0.869518 0.76447,-0.414554 -0.042,-2.2584189 0.79785,-2.4837784 1.20709,-0.3238942 1.52901,2.5689044 2.7776,2.5167744 1.19227,-0.04978 1.28351,-2.8902278 2.44476,-2.6160387 1.01727,0.2401945 -0.0442,2.5355267 0.88848,3.0071607 1.18823,0.600842 2.91468,-2.3891984 3.75762,-1.3585562 0.59537,0.7279472 -1.4682,1.4706532 -1.46672,2.4112492 z"
           sodipodi:nodetypes="aaaaaaaaaaaaaaaaa" /></g></g></g></svg>
