<?xml version="1.0" encoding="UTF-8" standalone="no"?>
<!-- Created with Inkscape (http://www.inkscape.org/) -->

<svg
   width="125"
   height="125"
   viewBox="0 0 33.072917 33.072917"
   version="1.1"
   id="svg5"
   xml:space="preserve"
   inkscape:version="1.2.1 (9c6d41e410, 2022-07-14)"
   sodipodi:docname="Proteins.svg"
   xmlns:inkscape="http://www.inkscape.org/namespaces/inkscape"
   xmlns:sodipodi="http://sodipodi.sourceforge.net/DTD/sodipodi-0.dtd"
   xmlns="http://www.w3.org/2000/svg"
   xmlns:svg="http://www.w3.org/2000/svg"><sodipodi:namedview
     id="namedview7"
     pagecolor="#505050"
     bordercolor="#eeeeee"
     borderopacity="1"
     inkscape:showpageshadow="0"
     inkscape:pageopacity="0"
     inkscape:pagecheckerboard="0"
     inkscape:deskcolor="#505050"
     inkscape:document-units="mm"
     showgrid="false"
     inkscape:zoom="0.82671156"
     inkscape:cx="253.41366"
     inkscape:cy="209.26283"
     inkscape:window-width="1851"
     inkscape:window-height="1057"
     inkscape:window-x="1141"
     inkscape:window-y="-8"
     inkscape:window-maximized="1"
     inkscape:current-layer="layer1" /><defs
     id="defs2" /><g
     inkscape:label="Layer 1"
     inkscape:groupmode="layer"
     id="layer1"><g
       id="g22556"><rect
         style="fill:#ede7d9;fill-opacity:1;stroke:none;stroke-width:1;paint-order:fill markers stroke;stop-color:#000000"
         id="rect1710"
         width="32.983902"
         height="33.097057"
         x="1.9318827e-09"
         y="-0.056576159"
         ry="4.0734835" /><rect
         style="fill:#736b60;fill-opacity:1;stroke:none;stroke-width:1;paint-order:fill markers stroke;stop-color:#000000"
         id="rect1712"
         width="30.241142"
         height="30.607706"
         x="1.3713799"
         y="1.1880994"
         ry="3.7671018" /><text
         xml:space="preserve"
         style="font-style:normal;font-variant:normal;font-weight:bold;font-stretch:normal;font-size:6.04133px;line-height:1;font-family:sans-serif;-inkscape-font-specification:'sans-serif Bold';letter-spacing:0px;word-spacing:0px;fill:#28231e;fill-opacity:1;stroke-width:0.264582"
         x="2.1373198"
         y="26.774853"
         id="text7288"><tspan
           sodipodi:role="line"
           id="tspan7286"
           style="font-style:normal;font-variant:normal;font-weight:bold;font-stretch:normal;font-family:sans-serif;-inkscape-font-specification:'sans-serif Bold';fill:#28231e;fill-opacity:1;stroke-width:0.264582"
           x="2.1373198"
           y="26.774853">Proteins</tspan></text><g
         id="g7768-8-3"
         transform="matrix(0.66749082,-0.38537599,0.38537599,0.66749082,0.96893751,12.021137)"
         style="stroke-width:1.29743"><path
           id="rect6138-4-8"
           style="fill:#d5a021;fill-opacity:1;stroke-width:1.29743;paint-order:fill markers stroke;stop-color:#000000"
           d="m 6.8143067,5.1179263 c -0.7075403,0 -1.2866997,0.00428 -1.2866997,0.00924 0,0.00493 0.038732,0.082706 0.085965,0.1726508 0.092137,0.1754481 0.3114088,0.7124458 0.40653,0.9962712 0.2601896,0.7763692 0.5155528,1.8207974 0.8735134,3.5719172 0.2240934,1.0962425 0.2092129,0.9980805 0.1586194,1.0462205 -0.040966,0.03899 -0.040855,0.04012 0.00277,0.01195 0.054907,-0.03549 0.04027,-0.0816 0.1541826,0.479948 0.2512162,1.238346 0.5886383,2.513822 0.8335814,3.150062 0.1682238,0.436959 0.4113671,0.875558 0.5645945,1.019075 l 0.1170228,0.109127 h 1.3033369 c 0.716945,0 1.303337,-0.0038 1.303337,-0.0087 0,-0.0049 -0.04379,-0.09137 -0.09761,-0.192196 C 10.944921,14.942985 10.64717,14.01457 10.343296,12.708019 10.17968,12.004543 10.141229,11.828394 9.968382,10.984254 9.9125145,10.711409 9.8135737,10.231713 9.7487565,9.9179453 9.6839414,9.6041742 9.6070965,9.2299675 9.5779355,9.0867228 9.5487713,8.9434822 9.4588511,8.5471486 9.3777206,8.2060958 8.9985367,6.6120852 8.6922494,5.7781203 8.3106486,5.299264 8.1574137,5.1069756 8.2500256,5.1179263 6.8143067,5.1179263 Z m -0.027731,6.0275767 c -0.00794,0 -0.037951,0.02213 -0.066553,0.0494 -0.028602,0.02727 -0.045613,0.04995 -0.037714,0.04995 0.00794,0 0.037952,-0.02266 0.066554,-0.04995 0.028601,-0.02727 0.045612,-0.0494 0.037713,-0.0494 z" /><path
           id="path7226-2-4"
           style="fill:#d5a021;fill-opacity:1;stroke-width:1.29743;paint-order:fill markers stroke;stop-color:#000000"
           d="m 24.599469,5.9217879 c 0.09611,0.172587 -0.973964,0.7421727 -0.874743,1.0213696 0.271406,0.7637082 0.291453,1.2122692 0.664844,2.934832 0.233753,1.0783645 0.218231,0.9818035 0.165456,1.0291595 -0.04273,0.03835 -0.04262,0.03947 0.0029,0.01175 0.05727,-0.03491 0.042,-0.08027 0.160829,0.47212 0.262045,1.218151 0.614012,2.472827 0.869514,3.098692 0.175475,0.429833 0.429099,0.861279 0.588931,1.002455 l 0.122068,0.107348 h 1.359518 c 0.74785,0 1.359519,-0.0037 1.359519,-0.0086 0,-0.0049 -0.04568,-0.08988 -0.101819,-0.189061 -0.300964,-0.531665 -0.61155,-1.444939 -0.928523,-2.730182 C 27.817305,11.97969 27.777197,11.806413 27.596899,10.976039 27.5386,10.707644 27.435394,10.235771 27.367783,9.9271197 27.300174,9.6184656 27.220016,9.2503614 27.189598,9.1094527 27.159177,8.9685481 27.065381,8.5786778 26.980753,8.2431869 26.585224,6.6751712 26.332913,5.596398 25.934863,5.1253508 25.123615,5.1913348 24.237659,4.952615 24.599469,5.9217879 Z m -0.321556,5.2128711 c -0.0083,0 -0.03959,0.02177 -0.06942,0.0486 -0.02983,0.02683 -0.04758,0.04913 -0.03934,0.04913 0.0083,0 0.03959,-0.02229 0.06942,-0.04913 0.02984,-0.02683 0.04758,-0.0486 0.03934,-0.0486 z"
           sodipodi:nodetypes="csscccsccsssscsssccssscs" /><path
           id="path7228-6-9"
           style="fill:#d5a021;fill-opacity:1;stroke-width:1.29743;paint-order:fill markers stroke;stop-color:#000000"
           d="m 15.896281,5.9457742 c 0.09098,0.1716547 -0.921981,0.7381638 -0.828056,1.0158526 0.25692,0.759583 0.275897,1.2057211 0.629359,2.9189796 0.221277,1.0725396 0.206583,0.9765006 0.156626,1.0236006 -0.04045,0.03815 -0.04035,0.03926 0.0028,0.01169 0.05422,-0.03472 0.03976,-0.07984 0.152245,0.469571 0.248059,1.211571 0.58124,2.45947 0.823105,3.081954 0.16611,0.427511 0.406197,0.856627 0.557499,0.99704 l 0.115552,0.106769 h 1.286957 c 0.707935,0 1.286958,-0.0037 1.286958,-0.0085 0,-0.0048 -0.04324,-0.0894 -0.09639,-0.18804 -0.284901,-0.528793 -0.57891,-1.437134 -0.878964,-2.715435 C 18.942412,11.970989 18.904444,11.798648 18.733769,10.97276 18.678579,10.705814 18.580884,10.23649 18.516881,9.9295062 18.452841,9.6224843 18.376962,9.2563684 18.348167,9.1162208 18.319369,8.9760773 18.230579,8.5883129 18.150468,8.2546341 17.77605,6.6950881 17.537205,5.6221418 17.1604,5.153639 16.392451,5.2192665 15.553781,4.9818362 15.896281,5.9457742 Z m -0.304395,5.1847138 c -0.0078,0 -0.03747,0.02165 -0.06572,0.04833 -0.02824,0.02669 -0.04504,0.04887 -0.03724,0.04887 0.0078,0 0.03747,-0.02217 0.06571,-0.04887 0.02824,-0.02668 0.04504,-0.04833 0.03724,-0.04833 z"
           sodipodi:nodetypes="csscccsccsssscsssccssscs" /><path
           id="path7230-6-1"
           style="fill:#d5a021;fill-opacity:1;stroke-width:1.29743;paint-order:fill markers stroke;stop-color:#000000"
           d="m 11.455052,14.835672 c 0.09098,-0.171655 -0.921981,-0.738164 -0.828056,-1.015853 0.25692,-0.759583 0.275897,-1.205721 0.629359,-2.918979 0.221277,-1.0725398 0.206583,-0.9765008 0.156626,-1.0236008 -0.04045,-0.03815 -0.04035,-0.03926 0.0028,-0.01169 0.05422,0.03472 0.03976,0.07984 0.152245,-0.469571 0.248059,-1.211571 0.58124,-2.45947 0.823105,-3.081954 0.16611,-0.427511 0.406197,-0.856627 0.557499,-0.99704 l 0.115552,-0.106769 h 1.286957 c 0.707935,0 1.286958,0.0037 1.286958,0.0085 0,0.0048 -0.04324,0.0894 -0.09639,0.18804 -0.284901,0.528793 -0.57891,1.437134 -0.878964,2.715435 -0.16156,0.688267 -0.199528,0.860608 -0.370203,1.686496 -0.05519,0.2669458 -0.152885,0.7362698 -0.216888,1.0432538 -0.06404,0.307022 -0.139919,0.673138 -0.168714,0.813285 -0.0288,0.140144 -0.117588,0.527908 -0.197699,0.861587 -0.374418,1.559546 -0.613263,2.632492 -0.990068,3.100995 -0.767949,-0.06563 -1.606619,0.171803 -1.264119,-0.792135 z M 11.150657,9.6509582 c -0.0078,0 -0.03747,-0.02165 -0.06572,-0.04833 -0.02824,-0.02669 -0.04504,-0.04887 -0.03724,-0.04887 0.0078,0 0.03747,0.02217 0.06571,0.04887 0.02824,0.02668 0.04504,0.04833 0.03724,0.04833 z"
           sodipodi:nodetypes="csscccsccsssscsssccssscs" /><path
           id="path7232-1-4"
           style="fill:#d5a021;fill-opacity:1;stroke-width:1.29743;paint-order:fill markers stroke;stop-color:#000000"
           d="m 20.337509,14.835672 c 0.09098,-0.171655 -0.921981,-0.738164 -0.828056,-1.015853 0.25692,-0.759583 0.275897,-1.205721 0.629359,-2.918979 0.221277,-1.0725398 0.206583,-0.9765008 0.156626,-1.0236008 -0.04045,-0.03815 -0.04035,-0.03926 0.0028,-0.01169 0.05422,0.03472 0.03976,0.07984 0.152245,-0.469571 0.248059,-1.211571 0.58124,-2.45947 0.823105,-3.081954 0.16611,-0.427511 0.406197,-0.856627 0.557499,-0.99704 l 0.115552,-0.106769 h 1.286957 c 0.707935,0 1.286958,0.0037 1.286958,0.0085 0,0.0048 -0.04324,0.0894 -0.09639,0.18804 -0.284901,0.528793 -0.57891,1.437134 -0.878964,2.715435 -0.16156,0.688267 -0.199528,0.860608 -0.370203,1.686496 -0.05519,0.2669458 -0.152885,0.7362698 -0.216888,1.0432538 -0.06404,0.307022 -0.139919,0.673138 -0.168714,0.813285 -0.0288,0.140144 -0.117588,0.527908 -0.197699,0.861587 -0.374418,1.559546 -0.613263,2.632492 -0.990068,3.100995 -0.767949,-0.06563 -1.606619,0.171803 -1.264119,-0.792135 z M 20.033114,9.6509582 c -0.0078,0 -0.03747,-0.02165 -0.06572,-0.04833 -0.02824,-0.02669 -0.04504,-0.04887 -0.03724,-0.04887 0.0078,0 0.03747,0.02217 0.06571,0.04887 0.02824,0.02668 0.04504,0.04833 0.03724,0.04833 z"
           sodipodi:nodetypes="csscccsccsssscsssccssscs" /><path
           style="fill:#4b4237;fill-opacity:1;stroke-width:1.29743"
           d="M 8.4766096,16.408448 C 7.6897073,16.240237 7.1744005,15.469083 6.6790502,13.718409 6.627614,13.53662 6.566258,13.308206 6.5427028,13.210821 6.4557841,12.851453 6.2362642,11.8684 6.2257147,11.791287 6.219725,11.747497 6.208728,11.695724 6.2012756,11.676249 6.1938161,11.656769 6.14991,11.449603 6.1036854,11.215876 5.9862363,10.621993 5.8742384,10.064397 5.7670039,9.5396528 5.7165869,9.2929416 5.6694405,9.0592146 5.6622358,9.0202593 5.6453357,8.9288873 5.4767006,8.1894152 5.4064997,7.8988422 5.3140792,7.5163003 5.0914583,6.7663276 4.9895233,6.4941203 4.8483751,6.1171973 4.7719894,5.951955 4.6371028,5.7317458 4.4940779,5.4982553 4.3623926,5.372916 4.259326,5.3721823 4.1426683,5.3713578 3.9754729,5.2916457 3.8830076,5.1927829 3.6420245,4.9351244 3.7300948,4.5811667 4.0739991,4.4251838 4.1722044,4.3806414 4.243719,4.3791737 6.24582,4.38057 c 2.2846921,0.0017 2.1958944,-0.00382 2.4991148,0.1528967 0.6085913,0.3145784 1.0893999,1.2220836 1.5078392,2.8459794 0.06903,0.2678795 0.308613,1.3063313 0.332262,1.4401367 0.02257,0.1276888 0.06422,0.2062116 0.06547,0.1234406 0.0023,-0.1540154 0.428369,-1.8997467 0.548661,-2.2482308 0.02017,-0.058438 0.06284,-0.18592 0.09481,-0.2833069 0.331135,-1.0085229 0.744671,-1.6372654 1.244153,-1.8916212 0.282468,-0.143842 0.20465,-0.1395218 2.502878,-0.1388848 1.732116,5.668e-4 2.123684,0.00645 2.226211,0.033927 0.815162,0.2184376 1.336205,1.1221878 1.858258,3.2231524 0.140026,0.5635253 0.192929,0.7877613 0.209127,0.8864166 0.01414,0.086111 0.09947,0.4465213 0.107424,0.4537281 0.0031,0.00282 0.04595,-0.1830822 0.09517,-0.413154 0.163366,-0.7638014 0.340055,-1.4332803 0.577358,-2.187629 0.09023,-0.286831 0.320142,-0.8117789 0.460717,-1.0519383 0.293933,-0.5021542 0.61095,-0.782643 1.018641,-0.9012624 0.136145,-0.039611 0.29467,-0.042631 2.251182,-0.042867 1.744016,-1.788e-4 2.126046,0.00549 2.229134,0.033319 0.822372,0.2219216 1.35116,1.1452865 1.880374,3.2834971 0.09037,0.3651123 0.317997,1.3888868 0.351704,1.5817891 0.0091,0.051934 0.03301,0.1688025 0.05319,0.2596973 0.02017,0.090893 0.06079,0.2874362 0.09026,0.4367605 0.189533,0.9606059 0.356249,1.7810209 0.405392,1.9949429 0.01492,0.06493 0.05764,0.255189 0.09496,0.42281 0.140085,0.62931 0.309107,1.252552 0.468351,1.726981 0.256506,0.764192 0.585758,1.308899 0.791176,1.308899 0.03581,0 0.109892,0.0165 0.16463,0.03667 0.508147,0.187209 0.450009,0.818775 -0.08786,0.954427 -0.07737,0.01951 -0.66763,0.02485 -2.128138,0.01923 -1.964449,-0.0076 -2.0253,-0.0092 -2.172401,-0.05655 -0.886114,-0.285636 -1.433219,-1.373338 -2.005674,-3.987494 -0.102938,-0.470071 -0.158506,-0.650569 -0.158506,-0.514846 0,0.06825 -0.220473,1.03651 -0.333079,1.462803 -0.314681,1.19128 -0.56049,1.826993 -0.905807,2.342606 -0.166346,0.248385 -0.479147,0.53063 -0.688642,0.621377 -0.319985,0.138605 -0.291976,0.137011 -2.394602,0.136499 -1.150443,-2.67e-4 -2.004034,-0.01007 -2.115821,-0.02425 -0.890144,-0.113016 -1.484223,-1.041069 -2.006756,-3.134899 -0.16374,-0.656115 -0.232607,-0.975573 -0.217695,-1.009846 0.0079,-0.01809 0.0046,-0.03291 -0.0073,-0.03291 -0.0119,0 -0.03701,-0.07702 -0.05579,-0.171163 -0.01878,-0.09413 -0.04274,-0.185201 -0.05326,-0.202356 -0.01052,-0.01718 -0.04048,0.07305 -0.06663,0.200675 -0.02613,0.127527 -0.05982,0.274363 -0.07484,0.326301 -0.01503,0.05193 -0.03287,0.13162 -0.03966,0.177068 -0.04428,0.296428 -0.334488,1.359333 -0.515528,1.888166 -0.280432,0.819167 -0.627951,1.408564 -0.993413,1.684838 -0.161401,0.122012 -0.459681,0.247747 -0.653687,0.275548 -0.09472,0.01356 -0.96232,0.02227 -2.114753,0.02118 -1.5720984,-0.0014 -1.984177,-0.0083 -2.1077898,-0.03467 z m 2.6565554,-0.986881 c 0,-0.0047 -0.04103,-0.087 -0.09118,-0.182968 C 10.773147,14.724165 10.495727,13.840583 10.21259,12.596992 10.060136,11.927388 10.024435,11.759643 9.8633837,10.95618 9.8113285,10.696483 9.7193256,10.239652 9.6589318,9.9410025 9.5985389,9.6423519 9.5268942,9.2864486 9.4997229,9.1501064 9.4725494,9.0137672 9.3884695,8.636616 9.3128753,8.3119962 8.9595668,6.7947974 8.674307,6.0008416 8.3187461,5.5450601 8.1759682,5.3620377 8.2622172,5.3726996 6.9244718,5.3726996 c -0.6592576,0 -1.1986497,0.00382 -1.1986497,0.00854 0,0.00469 0.036011,0.078582 0.080024,0.1641931 0.085854,0.1669937 0.2900343,0.6785384 0.3786641,0.948687 0.2424337,0.7389577 0.4804075,1.7329255 0.8139406,3.399664 0.2088005,1.0434173 0.1949001,0.9497623 0.1477599,0.9955833 -0.038174,0.03711 -0.037945,0.03808 0.00268,0.01126 0.051158,-0.03378 0.037395,-0.0776 0.1435388,0.45689 0.234073,1.178674 0.5487159,2.393042 0.7769438,2.998624 0.1567442,0.415903 0.3828161,0.832934 0.5255871,0.969535 l 0.1090678,0.104357 h 1.2145809 c 0.6680199,0 1.2145809,-0.0038 1.2145809,-0.0085 z m 1.561265,-0.115784 c 0.46001,-0.546015 0.861932,-1.858793 1.396731,-4.562082 0.205004,-1.0362544 0.442627,-2.1882462 0.511327,-2.478923 0.315336,-1.3342233 0.577677,-2.175047 0.838576,-2.687701 0.04522,-0.088858 0.08222,-0.1711945 0.08222,-0.1829684 0,-0.012486 -0.501948,-0.021416 -1.204636,-0.021416 h -1.204634 l -0.10259,0.093231 c -0.41979,0.3814992 -0.867806,1.7597728 -1.343377,4.132744 -0.04554,0.2272339 -0.111095,0.5512654 -0.145676,0.7200684 -0.03458,0.168803 -0.09492,0.471585 -0.134077,0.672849 -0.03916,0.201266 -0.08777,0.440305 -0.108035,0.531199 -0.07539,0.338237 -0.07564,0.333908 0.05374,0.899253 0.35257,1.540595 0.679657,2.455913 1.014951,2.840209 0.06725,0.07707 0.13741,0.144917 0.155926,0.15077 0.05058,0.01599 0.117749,-0.02202 0.189557,-0.107241 z m 7.245745,0.115312 c 0,-0.008 -0.04993,-0.109821 -0.177061,-0.361423 -0.0784,-0.155163 -0.278405,-0.722574 -0.394543,-1.119319 -0.25019,-0.854676 -0.40741,-1.547955 -0.821301,-3.621608 C 18.487665,10.020091 18.422177,9.6960621 18.401753,9.5986752 18.381327,9.5012894 18.346033,9.3313061 18.323313,9.2209341 18.258795,8.9074813 18.119746,8.2747894 18.092424,8.1703438 18.078844,8.1183993 18.036483,7.948419 17.9983,7.7926016 17.702721,6.5864225 17.373352,5.7775864 17.050847,5.4659226 L 16.942161,5.3608973 16.826301,5.470783 c -0.360504,0.3419203 -0.716096,1.2946597 -1.083952,2.9042452 l -0.127712,0.558819 0.04562,0.2202718 c 0.0251,0.1211504 0.09527,0.4699355 0.155948,0.7750782 0.06068,0.3051458 0.127713,0.6397988 0.148967,0.7436778 0.02125,0.10388 0.08759,0.427909 0.147405,0.72007 0.473062,2.310403 0.861835,3.489594 1.297932,3.936764 l 0.09785,0.100335 h 1.215905 c 0.668748,0 1.215905,-0.004 1.215905,-0.009 z m 1.525842,-0.08264 c 0.298252,-0.276516 0.70176,-1.302885 0.989604,-2.517179 0.100756,-0.425039 0.235254,-1.032256 0.305919,-1.381114 0.03813,-0.188281 0.106011,-0.522935 0.150829,-0.743679 0.04482,-0.220741 0.117583,-0.58727 0.161702,-0.8145029 0.09564,-0.4925908 0.356895,-1.7193374 0.412287,-1.9359207 0.02158,-0.0844 0.07068,-0.2809442 0.1091,-0.4367616 0.182766,-0.7412528 0.429423,-1.4727963 0.642794,-1.9064097 l 0.113268,-0.2301885 -1.208526,9.12e-5 -1.208527,8.82e-5 -0.08592,0.071026 c -0.290812,0.240396 -0.646415,1.0826636 -0.931788,2.207005 -0.157331,0.6198719 -0.367228,1.5776708 -0.574286,2.620576 -0.02836,0.142833 -0.09483,0.477487 -0.147714,0.743676 -0.05289,0.266191 -0.114342,0.565523 -0.13657,0.665188 -0.03891,0.174448 -0.0379,0.192494 0.02699,0.483978 0.03708,0.166528 0.09242,0.403704 0.123003,0.527058 0.03058,0.123358 0.06635,0.272674 0.0795,0.331818 0.07195,0.323725 0.265641,0.959231 0.420553,1.379821 0.168676,0.457958 0.517024,1.026983 0.628703,1.026983 0.01667,0 0.07475,-0.04122 0.129087,-0.0916 z m 7.281167,0.08188 c 0,-0.0053 -0.04308,-0.0983 -0.09573,-0.206575 -0.298636,-0.614168 -0.581114,-1.54283 -0.878541,-2.888275 -0.119522,-0.540655 -0.388963,-1.862645 -0.401788,-1.971333 -0.0053,-0.04545 -0.01641,-0.09856 -0.02455,-0.118045 -0.0082,-0.01948 -0.04042,-0.168212 -0.07173,-0.3305224 C 27.007537,8.5199533 26.687681,7.2209747 26.452266,6.564945 26.258855,6.0259617 26.027131,5.6003003 25.841787,5.4435274 l -0.09769,-0.08263 -0.11905,0.1180422 c -0.326739,0.3239778 -0.677103,1.229793 -1.002087,2.5907446 -0.05354,0.2241848 -0.06543,0.2500976 -0.102982,0.2242814 -0.03739,-0.025711 -0.03813,-0.024311 -0.0062,0.011547 0.03057,0.034418 0.02889,0.076538 -0.01089,0.2715015 -0.07431,0.3642849 -0.07416,0.3744856 0.01235,0.7973771 0.04516,0.2207439 0.100164,0.4916546 0.122223,0.6020235 0.02207,0.1103713 0.06982,0.3494113 0.106131,0.5311993 0.550398,2.755519 0.864798,3.864479 1.305197,4.603715 0.03868,0.06492 0.114495,0.163194 0.168481,0.21838 l 0.09816,0.100335 h 1.215903 c 0.668749,0 1.215906,-0.0044 1.215906,-0.0098 z M 14.482706,12.862589 c 0.0333,-0.03744 0.03235,-0.03828 -0.01011,-0.0089 -0.02576,0.01783 -0.04685,0.03641 -0.04685,0.04131 0,0.01942 0.02199,0.0069 0.05696,-0.03241 z m 10.332846,-0.330521 c 0.0333,-0.03745 0.03235,-0.03828 -0.01011,-0.009 -0.02576,0.01783 -0.04685,0.03641 -0.04685,0.04131 0,0.01942 0.02199,0.0069 0.05696,-0.0324 z m 0.187383,-0.165263 c 0.0333,-0.03745 0.03235,-0.03828 -0.01011,-0.009 -0.02576,0.01783 -0.04685,0.03641 -0.04685,0.04131 0,0.01942 0.02199,0.0069 0.05696,-0.03241 z m -5.517834,-0.03843 c 0,-0.0049 -0.02108,-0.02349 -0.04685,-0.04131 -0.04245,-0.02936 -0.04341,-0.02853 -0.01011,0.009 0.03497,0.03933 0.05696,0.05183 0.05696,0.03241 z m -4.145785,-0.221271 c 0.0333,-0.03745 0.03235,-0.03828 -0.01011,-0.0089 -0.02576,0.01783 -0.04685,0.03641 -0.04685,0.04131 0,0.01942 0.02199,0.0069 0.05696,-0.03241 z M 28.720414,11.99862 c 0,-0.0045 -0.02711,-0.02838 -0.06023,-0.05312 l -0.06023,-0.04498 0.051,0.05312 c 0.04792,0.04992 0.06946,0.06386 0.06946,0.04498 z m -9.636848,-0.02361 c 0,-0.0045 -0.02711,-0.02838 -0.06023,-0.05312 l -0.06023,-0.04498 0.051,0.05312 c 0.04792,0.04992 0.06946,0.06386 0.06946,0.04498 z m 9.422697,-0.165263 c 0,-0.0044 -0.0271,-0.02838 -0.06023,-0.05312 l -0.06023,-0.04498 0.051,0.05312 c 0.04792,0.04992 0.06947,0.06386 0.06947,0.04498 z m -12.738642,-0.08039 c 0.0333,-0.03744 0.03235,-0.03828 -0.01011,-0.0089 -0.02576,0.01783 -0.04685,0.03641 -0.04685,0.04131 0,0.01942 0.02199,0.0069 0.05696,-0.03241 z M 28.29211,11.620882 c 0,-0.0044 -0.0271,-0.02838 -0.06023,-0.05312 l -0.06023,-0.04498 0.051,0.05312 c 0.04792,0.04992 0.06946,0.06386 0.06946,0.04498 z M 6.4352012,11.534599 c 0.026648,-0.02596 0.042428,-0.04721 0.035067,-0.04721 -0.00737,0 -0.035187,0.02124 -0.061836,0.04721 -0.026648,0.02596 -0.042428,0.04721 -0.035067,0.04721 0.00737,0 0.035187,-0.02125 0.061836,-0.04721 z m 9.5465718,0.0059 c 0.0333,-0.03745 0.03235,-0.03828 -0.01011,-0.009 -0.02576,0.01783 -0.04684,0.03641 -0.04684,0.04131 0,0.01942 0.02199,0.0069 0.05695,-0.03241 z m 12.096185,-0.108484 c 0,-0.0045 -0.0271,-0.02838 -0.06023,-0.05312 l -0.06023,-0.04498 0.051,0.05312 c 0.04792,0.04992 0.06946,0.06386 0.06946,0.04498 z m -0.214151,-0.188919 c 0,-0.0045 -0.02711,-0.02838 -0.06023,-0.05312 l -0.06023,-0.04498 0.051,0.05312 c 0.04792,0.04992 0.06947,0.06386 0.06947,0.04498 z M 6.8635053,11.156845 c 0.026648,-0.02596 0.042428,-0.04721 0.035067,-0.04721 -0.00737,0 -0.035187,0.02124 -0.061836,0.04721 -0.026648,0.02596 -0.042428,0.04721 -0.035067,0.04721 0.00737,0 0.035187,-0.02124 0.061836,-0.04721 z M 27.622886,11.029884 c 0,-0.0049 -0.02108,-0.0235 -0.04684,-0.04131 -0.04246,-0.02936 -0.04341,-0.02853 -0.01011,0.0089 0.03497,0.03933 0.05696,0.05183 0.05696,0.03239 z m 0.190798,-1.1420129 c 0.0333,-0.037448 0.03236,-0.038284 -0.01011,-0.00886 -0.04459,0.030844 -0.05877,0.050223 -0.03674,0.050223 0.0055,0 0.02664,-0.018593 0.04684,-0.041314 z M 18.5516,9.2740423 c 0.0333,-0.037448 0.03235,-0.038284 -0.01011,-0.00896 -0.02576,0.017828 -0.04684,0.036411 -0.04684,0.041314 0,0.019419 0.02199,0.00695 0.05695,-0.032395 z m 0.214152,-0.1888695 c 0.0333,-0.037448 0.03235,-0.038284 -0.01011,-0.00896 -0.02576,0.017828 -0.04685,0.036412 -0.04685,0.041314 0,0.019419 0.02199,0.00695 0.05696,-0.032405 z M 5.7793601,9.0711206 c 0,-0.00443 -0.027103,-0.028378 -0.060229,-0.053122 l -0.060231,-0.044978 0.050994,0.053122 c 0.047923,0.049921 0.069467,0.063874 0.069467,0.044978 z M 19.702668,8.2588618 c 0.0333,-0.037448 0.03236,-0.038284 -0.01011,-0.00896 -0.02576,0.017828 -0.04685,0.036411 -0.04685,0.041314 0,0.019419 0.02199,0.00695 0.05695,-0.032395 z"
           id="path5356-1-4" /></g></g></g></svg>
